# xmcd
#
# Track frame offsets: 
#        150
#        16176
#        34440
#        50010
#        64741
#        83546
#        99813
#        116903
#        133625
#
# Disc length: 1966 seconds
#
# Revision: 0
# Processed by: cddbd v1.5.2PL0 Copyright (c) Steve Scherf et al.
# Submitted via: ExactAudioCopyFreeDBPlugin 1.0
#
DISCID=7007ac09
DTITLE=Berge, Bjørn - Who Else?
DYEAR=2018
DGENRE=Blues
TTITLE0=Monkey Ship
TTITLE1=Lost Pearl
TTITLE2=Mr. Bones
TTITLE3=It Just Ain't So
TTITLE4=Bitter Sweet
TTITLE5=Speed of Light
TTITLE6=The Calling
TTITLE7=Ginger Brandy Wine
TTITLE8=The Sun's Going Down
EXTD=
EXTT0=
EXTT1=
EXTT2=
EXTT3=
EXTT4=
EXTT5=
EXTT6=
EXTT7=
EXTT8=
PLAYORDER=
